M48
;GenerationSoftware,Autodesk,EAGLE,9.2.2*%
;CreationDate,2019-02-08T07:11:18Z*%
FMAT,2
ICI,OFF
METRIC,TZ,000.000
T5C0.350
T4C0.600
T3C0.813
T2C1.016
T1C3.175
%
G90
M71
T1
X-15240Y0
X15240Y0
T2
X0Y-2540
X0Y0
X4953Y10541
X2413Y10541
X12573Y10541
X10033Y10541
X0Y2540
X15113Y10541
X7493Y10541
T3
X-2794Y7620
X1270Y-25400
X11162Y-20107
X8815Y-21079
X8547Y-23953
X10893Y-22981
X18274Y-14572
X17062Y-18859
X-10414Y15240
X-10414Y12700
X-10414Y5080
X-10414Y2540
X-10414Y10160
X-10414Y7620
X-10414Y0
X-10414Y-2540
X-2794Y-2540
X-2794Y0
X-2794Y2540
X-2794Y5080
X-25400Y1270
X-2794Y10160
X-2794Y12700
X-2794Y15240
X10414Y-15240
X10414Y-12700
X10414Y-5080
X10414Y-2540
X10414Y-10160
X10414Y-7620
X10414Y0
X10414Y2540
X2794Y2540
X2794Y0
X2794Y-2540
X2794Y-5080
X2794Y-7620
X2794Y-10160
X2794Y-12700
X2794Y-15240
X18859Y-17062
X22447Y-6548
X21475Y-8894
X22098Y2540
X22098Y0
X25400Y-1270
X25400Y1270
X22981Y-10893
X23953Y-8547
X16477Y-16368
X20234Y11162
X21206Y8815
X23953Y8547
X22981Y10893
X14303Y18004
X16099Y16208
X18859Y17062
X17062Y18859
X-10893Y22981
X6529Y22222
X8876Y21250
X10893Y22981
X8547Y23953
X-2540Y23114
X0Y23114
X1270Y25400
X-1270Y25400
X-11162Y20234
X-8815Y21206
X-8547Y23953
X-10893Y-22981
X-17750Y14049
X-15954Y15845
X-17062Y18859
X-18859Y17062
X-21714Y6275
X-20742Y8622
X-22981Y10893
X-23953Y8547
X-21844Y-2540
X-21844Y0
X-25400Y-1270
X-20361Y-11162
X-21333Y-8815
X-23953Y-8547
X-22981Y-10893
X-14049Y-17623
X-15845Y-15827
X-18859Y-17062
X-17062Y-18859
X-6402Y-22222
X-8749Y-21250
X-8547Y-23953
X2540Y-22987
X0Y-22987
X-1270Y-25400
T4
X-19397Y19397
X-1524Y27432
X11906Y24761
X10498Y25344
X20475Y18320
X19397Y19397
X18320Y20475
X-27432Y-1524
X27432Y0
X27432Y-1524
X24761Y11906
X25344Y10498
X25927Y9090
X9090Y25927
X-11906Y-24761
X-9090Y25927
X-24761Y-11906
X1524Y-27432
X0Y-27432
X-1524Y-27432
X-25344Y-10498
X-25927Y-9090
X-18320Y20475
X-20475Y18320
X11906Y-24761
X10498Y-25344
X9090Y-25927
X-25927Y9090
X0Y27432
X-18320Y-20475
X-19397Y-19397
X20475Y-18320
X19397Y-19397
X18320Y-20475
X-20475Y-18320
X27432Y1524
X-27432Y0
X-27432Y1524
X25927Y-9090
X25344Y-10498
X24761Y-11906
X-25344Y10498
X-24761Y11906
X-9090Y-25927
X-10498Y-25344
X-10498Y25344
X-11906Y24761
X1524Y27432
T5
X-2794Y20066
X16891Y8128
X254Y5080
X-10541Y-16002
X5588Y-17272
X7366Y-17272
X-24765Y-4572
X2794Y-20066
M30