G04 EAGLE Gerber RS-274X export*
G75*
%MOMM*%
%FSLAX34Y34*%
%LPD*%
%INSoldermask Bottom*%
%IPPOS*%
%AMOC8*
5,1,8,0,0,1.08239X$1,22.5*%
G01*
%ADD10C,1.422400*%
%ADD11C,1.103200*%
%ADD12P,1.539592X8X292.500000*%
%ADD13P,1.759533X8X112.500000*%
%ADD14P,1.539592X8X315.000000*%
%ADD15P,1.759533X8X135.000000*%
%ADD16P,1.539592X8X337.500000*%
%ADD17P,1.759533X8X157.500000*%
%ADD18P,1.539592X8X360.000000*%
%ADD19P,1.759533X8X180.000000*%
%ADD20P,1.539592X8X22.500000*%
%ADD21P,1.759533X8X202.500000*%
%ADD22P,1.539592X8X45.000000*%
%ADD23P,1.759533X8X225.000000*%
%ADD24P,1.539592X8X67.500000*%
%ADD25P,1.759533X8X247.500000*%
%ADD26P,1.539592X8X90.000000*%
%ADD27P,1.759533X8X270.000000*%
%ADD28P,1.539592X8X112.500000*%
%ADD29P,1.759533X8X292.500000*%
%ADD30P,1.539592X8X135.000000*%
%ADD31P,1.759533X8X315.000000*%
%ADD32P,1.539592X8X157.500000*%
%ADD33P,1.759533X8X337.500000*%
%ADD34P,1.539592X8X180.000000*%
%ADD35P,1.759533X8X360.000000*%
%ADD36P,1.539592X8X202.500000*%
%ADD37P,1.759533X8X22.500000*%
%ADD38P,1.539592X8X225.000000*%
%ADD39P,1.759533X8X45.000000*%
%ADD40P,1.539592X8X247.500000*%
%ADD41P,1.759533X8X67.500000*%
%ADD42P,1.539592X8X270.000000*%
%ADD43P,1.759533X8X90.000000*%
%ADD44P,1.869504X8X112.500000*%
%ADD45C,1.727200*%
%ADD46C,4.648200*%
%ADD47C,0.959600*%


D10*
X-110236Y152400D02*
X-98044Y152400D01*
X-98044Y127000D02*
X-110236Y127000D01*
X-110236Y50800D02*
X-98044Y50800D01*
X-98044Y25400D02*
X-110236Y25400D01*
X-110236Y101600D02*
X-98044Y101600D01*
X-98044Y76200D02*
X-110236Y76200D01*
X-110236Y0D02*
X-98044Y0D01*
X-98044Y-25400D02*
X-110236Y-25400D01*
X-34036Y-25400D02*
X-21844Y-25400D01*
X-21844Y0D02*
X-34036Y0D01*
X-34036Y25400D02*
X-21844Y25400D01*
X-21844Y50800D02*
X-34036Y50800D01*
X-34036Y76200D02*
X-21844Y76200D01*
X-21844Y101600D02*
X-34036Y101600D01*
X-34036Y127000D02*
X-21844Y127000D01*
X-21844Y152400D02*
X-34036Y152400D01*
X98044Y-152400D02*
X110236Y-152400D01*
X110236Y-127000D02*
X98044Y-127000D01*
X98044Y-50800D02*
X110236Y-50800D01*
X110236Y-25400D02*
X98044Y-25400D01*
X98044Y-101600D02*
X110236Y-101600D01*
X110236Y-76200D02*
X98044Y-76200D01*
X98044Y0D02*
X110236Y0D01*
X110236Y25400D02*
X98044Y25400D01*
X34036Y25400D02*
X21844Y25400D01*
X21844Y0D02*
X34036Y0D01*
X34036Y-25400D02*
X21844Y-25400D01*
X21844Y-50800D02*
X34036Y-50800D01*
X34036Y-76200D02*
X21844Y-76200D01*
X21844Y-101600D02*
X34036Y-101600D01*
X34036Y-127000D02*
X21844Y-127000D01*
X21844Y-152400D02*
X34036Y-152400D01*
D11*
X274320Y15240D03*
X274320Y0D03*
X274320Y-15240D03*
D12*
X220980Y25400D03*
X220980Y0D03*
D13*
X254000Y-12700D03*
X254000Y12700D03*
D11*
X247607Y119058D03*
X253439Y104978D03*
X259271Y90898D03*
D14*
X202335Y111617D03*
X212056Y88150D03*
D15*
X239525Y85468D03*
X229805Y108935D03*
D11*
X183197Y204750D03*
X193974Y193974D03*
X204750Y183197D03*
D16*
X143030Y180041D03*
X160991Y162080D03*
D17*
X188585Y170625D03*
X170625Y188585D03*
D11*
X90898Y259271D03*
X104978Y253439D03*
X119058Y247607D03*
D18*
X65290Y222216D03*
X88757Y212495D03*
D19*
X108935Y229805D03*
X85468Y239525D03*
D11*
X-15240Y274320D03*
X0Y274320D03*
X15240Y274320D03*
D20*
X-25400Y231140D03*
X0Y231140D03*
D21*
X12700Y254000D03*
X-12700Y254000D03*
D11*
X-119058Y247607D03*
X-104978Y253439D03*
X-90898Y259271D03*
D22*
X-111617Y202335D03*
X-88150Y212056D03*
D23*
X-85468Y239525D03*
X-108935Y229805D03*
D11*
X-204750Y183197D03*
X-193974Y193974D03*
X-183197Y204750D03*
D24*
X-177501Y140490D03*
X-159540Y158451D03*
D25*
X-170625Y188585D03*
X-188585Y170625D03*
D11*
X-259271Y90898D03*
X-253439Y104978D03*
X-247607Y119058D03*
D26*
X-217136Y62750D03*
X-207415Y86217D03*
D27*
X-229805Y108935D03*
X-239525Y85468D03*
D11*
X-274320Y-15240D03*
X-274320Y0D03*
X-274320Y15240D03*
D28*
X-218440Y-25400D03*
X-218440Y0D03*
D29*
X-254000Y12700D03*
X-254000Y-12700D03*
D11*
X-247607Y-119058D03*
X-253439Y-104978D03*
X-259271Y-90898D03*
D30*
X-203605Y-111617D03*
X-213326Y-88150D03*
D31*
X-239525Y-85468D03*
X-229805Y-108935D03*
D11*
X-183197Y-204750D03*
X-193974Y-193974D03*
X-204750Y-183197D03*
D32*
X-140490Y-176231D03*
X-158451Y-158270D03*
D33*
X-188585Y-170625D03*
X-170625Y-188585D03*
D11*
X-90898Y-259271D03*
X-104978Y-253439D03*
X-119058Y-247607D03*
D34*
X-64020Y-222216D03*
X-87487Y-212495D03*
D35*
X-108935Y-229805D03*
X-85468Y-239525D03*
D11*
X15240Y-274320D03*
X0Y-274320D03*
X-15240Y-274320D03*
D36*
X25400Y-229870D03*
X0Y-229870D03*
D37*
X-12700Y-254000D03*
X12700Y-254000D03*
D11*
X119058Y-247607D03*
X104978Y-253439D03*
X90898Y-259271D03*
D38*
X111617Y-201065D03*
X88150Y-210786D03*
D39*
X85468Y-239525D03*
X108935Y-229805D03*
D11*
X204750Y-183197D03*
X193974Y-193974D03*
X183197Y-204750D03*
D40*
X182735Y-145724D03*
X164774Y-163685D03*
D41*
X170625Y-188585D03*
X188585Y-170625D03*
D11*
X259271Y-90898D03*
X253439Y-104978D03*
X247607Y-119058D03*
D42*
X224466Y-65478D03*
X214745Y-88945D03*
D43*
X229805Y-108935D03*
X239525Y-85468D03*
D44*
X24130Y105410D03*
X49530Y105410D03*
X74930Y105410D03*
X100330Y105410D03*
X125730Y105410D03*
X151130Y105410D03*
D45*
X0Y25400D03*
X0Y0D03*
X0Y-25400D03*
D46*
X152400Y0D03*
X-152400Y0D03*
D47*
X-247650Y-45720D03*
X27940Y-200660D03*
X-27940Y200660D03*
X168910Y81280D03*
X2540Y50800D03*
X-105410Y-160020D03*
X55880Y-172720D03*
X73660Y-172720D03*
M02*
